<svg width="14" height="18" viewBox="0 0 14 18" fill="none" xmlns="http://www.w3.org/2000/svg">
<path fill-rule="evenodd" clip-rule="evenodd" d="M0.788933 10.306V10.146C0.81241 9.6725 0.964152 9.21376 1.22851 8.81703C1.66854 8.34047 1.96977 7.75647 2.10058 7.12631C2.10058 6.63926 2.10058 6.14527 2.14312 5.65823C2.36291 3.31347 4.68134 1.69232 6.97141 1.69232H7.02813C9.3182 1.69232 11.6366 3.31347 11.8635 5.65823C11.906 6.14527 11.8635 6.63926 11.899 7.12631C12.0315 7.75793 12.3325 8.34374 12.771 8.82399C13.0374 9.2172 13.1893 9.67427 13.2106 10.146V10.299C13.2264 10.9351 13.0074 11.5554 12.5938 12.0454C12.0473 12.6184 11.3056 12.9749 10.5093 13.0473C8.17421 13.2978 5.81824 13.2978 3.48313 13.0473C2.6877 12.9717 1.94715 12.6158 1.39867 12.0454C0.991484 11.555 0.775352 10.9384 0.788933 10.306Z" stroke="#8E92BC" stroke-width="1.5" stroke-linecap="round" stroke-linejoin="round"/>
<path d="M5.21313 15.4686C5.57799 15.9266 6.11378 16.223 6.70193 16.2922C7.29007 16.3614 7.88207 16.1977 8.34691 15.8374C8.48988 15.7308 8.61852 15.6069 8.72977 15.4686" stroke="#8E92BC" stroke-width="1.5" stroke-linecap="round" stroke-linejoin="round"/>
</svg>
